<mxfile host="app.diagrams.net" modified="2021-03-13T10:24:16.179Z" agent="5.0 (Macintosh; Intel Mac OS X 10_15_7) AppleWebKit/537.36 (KHTML, like Gecko) Chrome/88.0.4324.192 Safari/537.36" etag="4o92lQqhagGvbbj9Glm1" version="14.4.4" type="github">
  <diagram id="JNpLJFcTXc5U6CZM_YVs" name="Page-1">
    <mxGraphModel dx="946" dy="518" grid="1" gridSize="10" guides="1" tooltips="1" connect="1" arrows="1" fold="1" page="1" pageScale="1" pageWidth="827" pageHeight="1169" math="0" shadow="0">
      <root>
        <mxCell id="0" />
        <mxCell id="1" parent="0" />
        <mxCell id="ZVlLFc28XI20pgCrt_TC-1" value="16M" style="ellipse;whiteSpace=wrap;html=1;fillColor=#9999FF;" vertex="1" parent="1">
          <mxGeometry x="444" y="60" width="100" height="60" as="geometry" />
        </mxCell>
        <mxCell id="ZVlLFc28XI20pgCrt_TC-2" value="8M" style="ellipse;whiteSpace=wrap;html=1;shadow=1;fillColor=#7EA6E0;" vertex="1" parent="1">
          <mxGeometry x="374" y="150" width="100" height="60" as="geometry" />
        </mxCell>
        <mxCell id="ZVlLFc28XI20pgCrt_TC-3" value="8M" style="ellipse;whiteSpace=wrap;html=1;fillColor=#7EA6E0;" vertex="1" parent="1">
          <mxGeometry x="514" y="150" width="100" height="60" as="geometry" />
        </mxCell>
        <mxCell id="ZVlLFc28XI20pgCrt_TC-4" value="4M" style="ellipse;whiteSpace=wrap;html=1;fillColor=#A9C4EB;" vertex="1" parent="1">
          <mxGeometry x="314" y="240" width="100" height="60" as="geometry" />
        </mxCell>
        <mxCell id="ZVlLFc28XI20pgCrt_TC-5" value="4M" style="ellipse;whiteSpace=wrap;html=1;fillColor=#A9C4EB;" vertex="1" parent="1">
          <mxGeometry x="444" y="240" width="100" height="60" as="geometry" />
        </mxCell>
        <mxCell id="ZVlLFc28XI20pgCrt_TC-8" value="2M" style="ellipse;whiteSpace=wrap;html=1;fillColor=#D4E1F5;" vertex="1" parent="1">
          <mxGeometry x="244" y="330" width="100" height="60" as="geometry" />
        </mxCell>
        <mxCell id="ZVlLFc28XI20pgCrt_TC-9" value="2M" style="ellipse;whiteSpace=wrap;html=1;fillColor=#D4E1F5;" vertex="1" parent="1">
          <mxGeometry x="364" y="330" width="100" height="60" as="geometry" />
        </mxCell>
        <mxCell id="ZVlLFc28XI20pgCrt_TC-18" value="" style="endArrow=none;html=1;entryX=0.38;entryY=1.033;entryDx=0;entryDy=0;entryPerimeter=0;exitX=1;exitY=0;exitDx=0;exitDy=0;" edge="1" parent="1" source="ZVlLFc28XI20pgCrt_TC-2" target="ZVlLFc28XI20pgCrt_TC-1">
          <mxGeometry width="50" height="50" relative="1" as="geometry">
            <mxPoint x="454" y="160" as="sourcePoint" />
            <mxPoint x="494" y="130" as="targetPoint" />
          </mxGeometry>
        </mxCell>
        <mxCell id="ZVlLFc28XI20pgCrt_TC-19" value="" style="endArrow=none;html=1;entryX=0.7;entryY=1;entryDx=0;entryDy=0;entryPerimeter=0;" edge="1" parent="1" source="ZVlLFc28XI20pgCrt_TC-3" target="ZVlLFc28XI20pgCrt_TC-1">
          <mxGeometry width="50" height="50" relative="1" as="geometry">
            <mxPoint x="464" y="170" as="sourcePoint" />
            <mxPoint x="492" y="131.98000000000002" as="targetPoint" />
          </mxGeometry>
        </mxCell>
        <mxCell id="ZVlLFc28XI20pgCrt_TC-21" value="" style="endArrow=none;html=1;entryX=0.31;entryY=0.95;entryDx=0;entryDy=0;entryPerimeter=0;exitX=0.68;exitY=0.017;exitDx=0;exitDy=0;exitPerimeter=0;" edge="1" parent="1" source="ZVlLFc28XI20pgCrt_TC-4" target="ZVlLFc28XI20pgCrt_TC-2">
          <mxGeometry width="50" height="50" relative="1" as="geometry">
            <mxPoint x="374" y="260" as="sourcePoint" />
            <mxPoint x="424" y="210" as="targetPoint" />
          </mxGeometry>
        </mxCell>
        <mxCell id="ZVlLFc28XI20pgCrt_TC-22" value="" style="endArrow=none;html=1;entryX=0.63;entryY=0.983;entryDx=0;entryDy=0;entryPerimeter=0;" edge="1" parent="1" source="ZVlLFc28XI20pgCrt_TC-5" target="ZVlLFc28XI20pgCrt_TC-2">
          <mxGeometry width="50" height="50" relative="1" as="geometry">
            <mxPoint x="424" y="260" as="sourcePoint" />
            <mxPoint x="474" y="210" as="targetPoint" />
          </mxGeometry>
        </mxCell>
        <mxCell id="ZVlLFc28XI20pgCrt_TC-24" value="" style="endArrow=none;html=1;exitX=0.62;exitY=0;exitDx=0;exitDy=0;exitPerimeter=0;" edge="1" parent="1" source="ZVlLFc28XI20pgCrt_TC-8">
          <mxGeometry width="50" height="50" relative="1" as="geometry">
            <mxPoint x="314" y="350" as="sourcePoint" />
            <mxPoint x="344" y="298" as="targetPoint" />
          </mxGeometry>
        </mxCell>
        <mxCell id="ZVlLFc28XI20pgCrt_TC-25" value="" style="endArrow=none;html=1;entryX=0.5;entryY=1;entryDx=0;entryDy=0;" edge="1" parent="1" source="ZVlLFc28XI20pgCrt_TC-9" target="ZVlLFc28XI20pgCrt_TC-4">
          <mxGeometry width="50" height="50" relative="1" as="geometry">
            <mxPoint x="354" y="350" as="sourcePoint" />
            <mxPoint x="404" y="300" as="targetPoint" />
          </mxGeometry>
        </mxCell>
        <mxCell id="ZVlLFc28XI20pgCrt_TC-27" value="" style="endArrow=none;dashed=1;html=1;dashPattern=1 3;strokeWidth=2;" edge="1" parent="1">
          <mxGeometry width="50" height="50" relative="1" as="geometry">
            <mxPoint x="254" y="430" as="sourcePoint" />
            <mxPoint x="690" y="430" as="targetPoint" />
          </mxGeometry>
        </mxCell>
        <mxCell id="ZVlLFc28XI20pgCrt_TC-28" value="16KB" style="ellipse;whiteSpace=wrap;html=1;fillColor=#C3ABD0;" vertex="1" parent="1">
          <mxGeometry x="244" y="450" width="100" height="60" as="geometry" />
        </mxCell>
        <mxCell id="ZVlLFc28XI20pgCrt_TC-29" value="8KB" style="ellipse;whiteSpace=wrap;html=1;fillColor=#E6D0DE;" vertex="1" parent="1">
          <mxGeometry x="184" y="550" width="100" height="60" as="geometry" />
        </mxCell>
        <mxCell id="ZVlLFc28XI20pgCrt_TC-30" value="8KB" style="ellipse;whiteSpace=wrap;html=1;fillColor=#E6D0DE;" vertex="1" parent="1">
          <mxGeometry x="304" y="550" width="100" height="60" as="geometry" />
        </mxCell>
        <mxCell id="ZVlLFc28XI20pgCrt_TC-32" value="" style="endArrow=none;html=1;entryX=0.38;entryY=1.05;entryDx=0;entryDy=0;entryPerimeter=0;exitX=0.71;exitY=0.033;exitDx=0;exitDy=0;exitPerimeter=0;" edge="1" parent="1" source="ZVlLFc28XI20pgCrt_TC-29" target="ZVlLFc28XI20pgCrt_TC-28">
          <mxGeometry width="50" height="50" relative="1" as="geometry">
            <mxPoint x="254" y="570" as="sourcePoint" />
            <mxPoint x="304" y="520" as="targetPoint" />
          </mxGeometry>
        </mxCell>
        <mxCell id="ZVlLFc28XI20pgCrt_TC-33" value="" style="endArrow=none;html=1;entryX=0.6;entryY=1.067;entryDx=0;entryDy=0;entryPerimeter=0;" edge="1" parent="1" source="ZVlLFc28XI20pgCrt_TC-30" target="ZVlLFc28XI20pgCrt_TC-28">
          <mxGeometry width="50" height="50" relative="1" as="geometry">
            <mxPoint x="294" y="560" as="sourcePoint" />
            <mxPoint x="344" y="510" as="targetPoint" />
          </mxGeometry>
        </mxCell>
        <mxCell id="ZVlLFc28XI20pgCrt_TC-34" value="" style="endArrow=none;dashed=1;html=1;dashPattern=1 3;strokeWidth=2;" edge="1" parent="1">
          <mxGeometry width="50" height="50" relative="1" as="geometry">
            <mxPoint x="550" y="359.5" as="sourcePoint" />
            <mxPoint x="630" y="359.5" as="targetPoint" />
          </mxGeometry>
        </mxCell>
        <mxCell id="ZVlLFc28XI20pgCrt_TC-35" value="" style="endArrow=none;dashed=1;html=1;dashPattern=1 3;strokeWidth=2;" edge="1" parent="1">
          <mxGeometry width="50" height="50" relative="1" as="geometry">
            <mxPoint x="620" y="269.5" as="sourcePoint" />
            <mxPoint x="690" y="269.5" as="targetPoint" />
          </mxGeometry>
        </mxCell>
        <mxCell id="ZVlLFc28XI20pgCrt_TC-36" value="" style="endArrow=none;dashed=1;html=1;dashPattern=1 3;strokeWidth=2;" edge="1" parent="1">
          <mxGeometry width="50" height="50" relative="1" as="geometry">
            <mxPoint x="560" y="479.5" as="sourcePoint" />
            <mxPoint x="640" y="479.5" as="targetPoint" />
          </mxGeometry>
        </mxCell>
        <mxCell id="ZVlLFc28XI20pgCrt_TC-37" value="" style="endArrow=none;dashed=1;html=1;dashPattern=1 3;strokeWidth=2;" edge="1" parent="1">
          <mxGeometry width="50" height="50" relative="1" as="geometry">
            <mxPoint x="560" y="570" as="sourcePoint" />
            <mxPoint x="640" y="570" as="targetPoint" />
          </mxGeometry>
        </mxCell>
        <mxCell id="ZVlLFc28XI20pgCrt_TC-38" value="" style="endArrow=none;dashed=1;html=1;" edge="1" parent="1">
          <mxGeometry width="50" height="50" relative="1" as="geometry">
            <mxPoint x="120" y="90" as="sourcePoint" />
            <mxPoint x="440" y="90" as="targetPoint" />
          </mxGeometry>
        </mxCell>
        <mxCell id="ZVlLFc28XI20pgCrt_TC-39" value="树头部" style="text;html=1;strokeColor=none;fillColor=none;align=center;verticalAlign=middle;whiteSpace=wrap;rounded=0;" vertex="1" parent="1">
          <mxGeometry x="60" y="80" width="60" height="20" as="geometry" />
        </mxCell>
        <mxCell id="ZVlLFc28XI20pgCrt_TC-40" value="" style="endArrow=none;dashed=1;html=1;" edge="1" parent="1">
          <mxGeometry width="50" height="50" relative="1" as="geometry">
            <mxPoint x="120" y="180" as="sourcePoint" />
            <mxPoint x="374" y="179.5" as="targetPoint" />
          </mxGeometry>
        </mxCell>
        <mxCell id="ZVlLFc28XI20pgCrt_TC-41" value="第1层" style="text;html=1;strokeColor=none;fillColor=none;align=center;verticalAlign=middle;whiteSpace=wrap;rounded=0;" vertex="1" parent="1">
          <mxGeometry x="60" y="170" width="60" height="20" as="geometry" />
        </mxCell>
        <mxCell id="ZVlLFc28XI20pgCrt_TC-42" value="" style="endArrow=none;dashed=1;html=1;" edge="1" parent="1">
          <mxGeometry width="50" height="50" relative="1" as="geometry">
            <mxPoint x="120" y="270" as="sourcePoint" />
            <mxPoint x="314" y="269.5" as="targetPoint" />
          </mxGeometry>
        </mxCell>
        <mxCell id="ZVlLFc28XI20pgCrt_TC-43" value="第2层" style="text;html=1;strokeColor=none;fillColor=none;align=center;verticalAlign=middle;whiteSpace=wrap;rounded=0;" vertex="1" parent="1">
          <mxGeometry x="60" y="260" width="60" height="20" as="geometry" />
        </mxCell>
        <mxCell id="ZVlLFc28XI20pgCrt_TC-44" value="" style="endArrow=none;dashed=1;html=1;" edge="1" parent="1">
          <mxGeometry width="50" height="50" relative="1" as="geometry">
            <mxPoint x="120" y="360" as="sourcePoint" />
            <mxPoint x="244" y="359.5" as="targetPoint" />
          </mxGeometry>
        </mxCell>
        <mxCell id="ZVlLFc28XI20pgCrt_TC-45" value="第3层" style="text;html=1;strokeColor=none;fillColor=none;align=center;verticalAlign=middle;whiteSpace=wrap;rounded=0;" vertex="1" parent="1">
          <mxGeometry x="60" y="350" width="60" height="20" as="geometry" />
        </mxCell>
        <mxCell id="ZVlLFc28XI20pgCrt_TC-46" value="" style="endArrow=none;dashed=1;html=1;" edge="1" parent="1">
          <mxGeometry width="50" height="50" relative="1" as="geometry">
            <mxPoint x="120" y="480" as="sourcePoint" />
            <mxPoint x="244" y="479.5" as="targetPoint" />
          </mxGeometry>
        </mxCell>
        <mxCell id="ZVlLFc28XI20pgCrt_TC-47" value="第10层" style="text;html=1;strokeColor=none;fillColor=none;align=center;verticalAlign=middle;whiteSpace=wrap;rounded=0;" vertex="1" parent="1">
          <mxGeometry x="60" y="470" width="60" height="20" as="geometry" />
        </mxCell>
        <mxCell id="ZVlLFc28XI20pgCrt_TC-48" value="" style="endArrow=none;dashed=1;html=1;" edge="1" parent="1">
          <mxGeometry width="50" height="50" relative="1" as="geometry">
            <mxPoint x="120" y="580" as="sourcePoint" />
            <mxPoint x="184" y="579.5" as="targetPoint" />
          </mxGeometry>
        </mxCell>
        <mxCell id="ZVlLFc28XI20pgCrt_TC-49" value="第11层" style="text;html=1;strokeColor=none;fillColor=none;align=center;verticalAlign=middle;whiteSpace=wrap;rounded=0;" vertex="1" parent="1">
          <mxGeometry x="60" y="570" width="60" height="20" as="geometry" />
        </mxCell>
      </root>
    </mxGraphModel>
  </diagram>
</mxfile>
